# xmcd
#
# Track frame offsets:
#	150
#	22546
#	52199
#	69778
#	87610
#	123754
#	152011
#	179173
#	202449
#	216813
#	242985
#	269712
#
# Disc length: 3875 seconds
# Revision: 2
# Processed by: cddbd v1.5.2PL0 Copyright (c) Steve Scherf et al.
# Submitted via: dBpowerAMP V12.0
#
DISCID=b50f210c
DTITLE=Various Artist - Untapped Blues Festival - 2004 Live!
DYEAR=2004
DGENRE=Blues
TTITLE0=Linda Hornbuckle - Try Matty's
TTITLE1=Terry Evans - Rooftop Tomcat
TTITLE2=Paul deLay - Look What You've Done
TTITLE3=Junkyard Jane - Summertime Siren
TTITLE4=Long John Hunter - Let's Set the Time
TTITLE5=Terry Evans - Don't Let the Green Grass Fool Ya
TTITLE6=Linda Hornbuckle - Cheatin' In the Next Room
TTITLE7=Paul deLay - Nice and Strong
TTITLE8=Junkyard Jane - Swoon and Sigh
TTITLE9=Terry Evans - Honey Boy
TTITLE10=Long John Hunter - The Walk
TTITLE11=Linda Hornbuckle - Hound Dog
EXTD=
EXTT0=
EXTT1=
EXTT2=
EXTT3=
EXTT4=
EXTT5=
EXTT6=
EXTT7=
EXTT8=
EXTT9=
EXTT10=
EXTT11=
PLAYORDER=
